<svg xmlns="http://www.w3.org/2000/svg" viewBox="0 0 256 256" role="img" aria-label="Settings gear">
  <defs>
    <radialGradient id="gCenter" cx="50%" cy="38%" r="62%">
      <stop offset="0%" stop-color="#d8b9ff" />
      <stop offset="45%" stop-color="#9c4edb" />
      <stop offset="100%" stop-color="#5a1a85" />
    </radialGradient>
    <linearGradient id="gShine" x1="0%" y1="0%" x2="100%" y2="100%">
      <stop offset="0%" stop-color="rgba(255,255,255,0.55)" />
      <stop offset="40%" stop-color="rgba(255,255,255,0)" />
      <stop offset="100%" stop-color="rgba(0,0,0,0.18)" />
    </linearGradient>
  </defs>

  <g transform="translate(128 128)">
    <path
      d="M0-106c9 0 18 1 26 3l7 23a82 82 0 0 1 17 7l21-11a106 106 0 0 1 18 18l-11 21c3 5 5 11 7 17l23 7c2 8 3 17 3 26s-1 18-3 26l-23 7a82 82 0 0 1-7 17l11 21a106 106 0 0 1-18 18l-21-11a82 82 0 0 1-17 7l-7 23c-8 2-17 3-26 3s-18-1-26-3l-7-23a82 82 0 0 1-17-7l-21 11a106 106 0 0 1-18-18l11-21a82 82 0 0 1-7-17l-23-7a106 106 0 0 1-3-26c0-9 1-18 3-26l23-7c2-6 4-12 7-17l-11-21a106 106 0 0 1 18-18l21 11a82 82 0 0 1 17-7l7-23c8-2 17-3 26-3z"
      fill="url(#gCenter)"
      stroke="#4c166d"
      stroke-width="7"
    />

    <circle r="57" fill="#2a0f3f" stroke="#b46ef0" stroke-width="8" />
    <circle r="46" fill="#160823" stroke="#7d34b7" stroke-width="3" />

    <path
      d="M-74-52c22-34 55-53 98-56 12-1 27-1 44 2"
      fill="none"
      stroke="url(#gShine)"
      stroke-width="16"
      stroke-linecap="round"
      opacity="0.85"
    />
  </g>
</svg>
